<?xml version="1.0"?>
<svg version="1.1" xmlns="http://www.w3.org/2000/svg" width="388px" height="54px" style="border:2px solid black"><path fill="#131414" d="M11.8935546875,37.3271484375q0-3.1787109375,0.28564453125-6.36474609375t1.19384765625-6.27685546875q0.263671875-0.9228515625,0.6884765625-1.82373046875t1.0400390625-1.60400390625t1.46484375-1.142578125t2.021484375-0.439453125l0.3076171875,0.029296875q1.259765625,0.17578125,1.8603515625,1.01806640625t0.6005859375,2.10205078125q0,0.3369140625-0.08056640625,0.84228515625t-0.25634765625,0.97412109375t-0.47607421875,0.79833984375t-0.75439453125,0.32958984375q-0.205078125-0.029296875-0.37353515625-0.0732421875t-0.31494140625-0.1904296875q0.234375-0.5126953125,0.41748046875-1.0693359375t0.18310546875-1.2744140625q0-0.263671875-0.0439453125-0.673828125t-0.16845703125-0.81298828125t-0.32958984375-0.703125t-0.5712890625-0.30029296875q-0.9228515625,0-1.552734375,1.03271484375t-1.0546875,2.63671875t-0.6298828125,3.544921875t-0.31494140625,3.75t-0.12451171875,3.2666015625t-0.0146484375,2.05810546875q0,0.703125-0.0146484375,1.552734375l0,0.1904296875q0.0146484375,0.7470703125,0.1025390625,1.4208984375q0.1171875,0.76171875,0.4541015625,1.318359375t1.0546875,0.64453125q0.2197265625,0.029296875,0.4248046875,0.029296875q0.849609375,0,1.5380859375-0.4833984375q0.849609375-0.6005859375,1.5087890625-1.56005859375t1.171875-2.109375t0.94482421875-2.17529296875t0.84228515625-1.69921875t0.849609375-0.673828125q0.146484375,0,0.439453125,0.05859375t0.29296875,0.2783203125q0,0.05859375-0.029296875,0.1611328125t-0.0732421875,0.1611328125q-0.3955078125,1.552734375-1.00341796875,3.22265625t-1.552734375,3.03955078125t-2.314453125,2.23388671875t-3.28857421875,0.8642578125q-1.376953125,0-2.23388671875-0.52001953125t-1.318359375-1.3916015625t-0.6298828125-1.97021484375t-0.16845703125-2.2265625z M27.210986328125,36.814453125q0-0.8349609375,0.21240234375-1.72119140625t0.673828125-1.5966796875t1.16455078125-1.1572265625t1.69921875-0.44677734375q0.7470703125,0,1.57470703125,0.25634765625t1.51611328125,0.732421875t1.12060546875,1.16455078125t0.43212890625,1.5380859375q0,1.025390625-0.37353515625,1.9482421875t-1.04736328125,1.64794921875t-1.57470703125,1.142578125t-1.95556640625,0.41748046875q-0.8642578125,0-1.5087890625-0.31494140625t-1.07666015625-0.84228515625t-0.64453125-1.2451171875t-0.21240234375-1.5234375z M29.364306640625,36.78515625q0,0.263671875,0.08056640625,0.7763671875t0.24169921875,1.00341796875t0.41748046875,0.849609375t0.62255859375,0.32958984375q0.7763671875-0.087890625,1.28173828125-0.50537109375t0.8203125-1.01806640625t0.439453125-1.3037109375t0.12451171875-1.3330078125q0-0.8056640625-0.31494140625-1.34765625t-1.03271484375-0.87890625q0,0.029296875,0.029296875,0.029296875t0.029296875-0.029296875l-0.3662109375-0.087890625q-0.146484375-0.05859375-0.35888671875-0.1318359375t-0.41748046875-0.322265625q-0.5712890625,0.205078125-0.88623046875,0.52734375t-0.47607421875,0.78369140625t-0.19775390625,1.10595703125t-0.03662109375,1.552734375z M38.30966796875,30.4130859375q0-0.146484375,0.22705078125-0.2490234375t0.5419921875-0.146484375t0.6005859375-0.0732421875t0.43212890625-0.029296875q0.05859375-0.3955078125,0.16845703125-1.0693359375t0.27099609375-1.44287109375t0.40283203125-1.54541015625t0.5859375-1.40625t0.81298828125-1.03271484375t1.0986328125-0.40283203125l-0.029296875,0q0.205078125-0.029296875,0.40283203125-0.0439453125t0.40283203125-0.0146484375q0.4833984375,0,1.04736328125,0.1904296875t1.04736328125,0.53466796875t0.81298828125,0.82763671875t0.32958984375,1.025390625q0,0.4248046875-0.21240234375,0.91552734375t-0.73974609375,0.49072265625q-0.17578125,0-0.35888671875-0.087890625t-0.34423828125-0.1904296875q0.05859375-0.3369140625,0.05859375-0.673828125q0-0.17578125-0.0146484375-0.3369140625q-0.0439453125-0.5126953125-0.2197265625-0.90087890625t-0.50537109375-0.615234375t-0.78369140625-0.16845703125q-0.6005859375,0.087890625-0.90087890625,0.732421875t-0.41748046875,1.53076171875t-0.146484375,1.8017578125t-0.1171875,1.48681640625q0.6884765625,0.05859375,1.16455078125,0.05859375l1.19384765625,0q0.1171875,0,0.40283203125,0.0146484375t0.556640625,0.05859375t0.4833984375,0.15380859375t0.21240234375,0.28564453125q0,0.146484375-0.1171875,0.25634765625t-0.28564453125,0.15380859375t-0.3515625,0.05859375t-0.30029296875,0.0146484375q-0.5126953125,0-0.87158203125-0.0439453125t-0.6884765625-0.08056640625t-0.6884765625-0.03662109375t-0.84228515625,0.1025390625q-0.146484375,1.6259765625-0.234375,3.22265625t-0.087890625,3.22265625q0,2.548828125,0.1611328125,4.9951171875t0.5859375,4.9658203125q0.05859375,0.234375,0.1025390625,0.53466796875t0.0439453125,0.57861328125q0,0.263671875-0.1611328125,0.43212890625t-0.40283203125,0.24169921875t-0.498046875,0.1025390625t-0.46142578125,0.029296875q-0.8349609375,0-1.171875-0.25634765625t-0.4833984375-1.03271484375q-0.3662109375-2.0654296875-0.46875-4.16748046875t-0.1025390625-4.24072265625q0-2.0947265625,0.15380859375-4.18212890625t0.38818359375-4.15283203125q-0.1171875,0-0.40283203125,0.0146484375t-0.5712890625,0t-0.498046875-0.1025390625t-0.21240234375-0.3076171875z M49.115380859375,30.4130859375q0-0.146484375,0.22705078125-0.2490234375t0.5419921875-0.146484375t0.6005859375-0.0732421875t0.43212890625-0.029296875q0.05859375-0.3955078125,0.16845703125-1.0693359375t0.27099609375-1.44287109375t0.40283203125-1.54541015625t0.5859375-1.40625t0.81298828125-1.03271484375t1.0986328125-0.40283203125l-0.029296875,0q0.205078125-0.029296875,0.40283203125-0.0439453125t0.40283203125-0.0146484375q0.4833984375,0,1.04736328125,0.1904296875t1.04736328125,0.53466796875t0.81298828125,0.82763671875t0.32958984375,1.025390625q0,0.4248046875-0.21240234375,0.91552734375t-0.73974609375,0.49072265625q-0.17578125,0-0.35888671875-0.087890625t-0.34423828125-0.1904296875q0.05859375-0.3369140625,0.05859375-0.673828125q0-0.17578125-0.0146484375-0.3369140625q-0.0439453125-0.5126953125-0.2197265625-0.90087890625t-0.50537109375-0.615234375t-0.78369140625-0.16845703125q-0.6005859375,0.087890625-0.90087890625,0.732421875t-0.41748046875,1.53076171875t-0.146484375,1.8017578125t-0.1171875,1.48681640625q0.6884765625,0.05859375,1.16455078125,0.05859375l1.19384765625,0q0.1171875,0,0.40283203125,0.0146484375t0.556640625,0.05859375t0.4833984375,0.15380859375t0.21240234375,0.28564453125q0,0.146484375-0.1171875,0.25634765625t-0.28564453125,0.15380859375t-0.3515625,0.05859375t-0.30029296875,0.0146484375q-0.5126953125,0-0.87158203125-0.0439453125t-0.6884765625-0.08056640625t-0.6884765625-0.03662109375t-0.84228515625,0.1025390625q-0.146484375,1.6259765625-0.234375,3.22265625t-0.087890625,3.22265625q0,2.548828125,0.1611328125,4.9951171875t0.5859375,4.9658203125q0.05859375,0.234375,0.1025390625,0.53466796875t0.0439453125,0.57861328125q0,0.263671875-0.1611328125,0.43212890625t-0.40283203125,0.24169921875t-0.498046875,0.1025390625t-0.46142578125,0.029296875q-0.8349609375,0-1.171875-0.25634765625t-0.4833984375-1.03271484375q-0.3662109375-2.0654296875-0.46875-4.16748046875t-0.1025390625-4.24072265625q0-2.0947265625,0.15380859375-4.18212890625t0.38818359375-4.15283203125q-0.1171875,0-0.40283203125,0.0146484375t-0.5712890625,0t-0.498046875-0.1025390625t-0.21240234375-0.3076171875z M59.92109375,37.13671875q0-1.025390625,0.22705078125-2.4169921875t0.76904296875-2.63671875t1.42822265625-2.11669921875t2.23388671875-0.87158203125q1.259765625,0,1.8896484375,0.72509765625t0.6298828125,1.95556640625q0,0.8056640625-0.30029296875,1.76513671875t-0.85693359375,1.81640625t-1.318359375,1.42822265625t-1.69921875,0.5712890625l-0.380859375-0.029296875q0,0.3955078125,0.1171875,1.06201171875t0.34423828125,1.32568359375t0.5859375,1.1572265625t0.87158203125,0.498046875q0.7470703125,0,1.435546875-0.6005859375t1.3037109375-1.3330078125t1.142578125-1.3330078125t0.966796875-0.6005859375q0.234375,0,0.4833984375,0.0732421875t0.2783203125,0.41015625q0,0.205078125-0.10986328125,0.3369140625t-0.19775390625,0.29296875q-0.4541015625,0.7763671875-0.98876953125,1.4794921875t-1.20849609375,1.2744140625t-1.47216796875,0.90087890625t-1.76513671875,0.32958984375q-1.259765625,0-2.0947265625-0.44677734375t-1.34765625-1.201171875t-0.73974609375-1.7431640625t-0.22705078125-2.07275390625z M62.5431640625,36.0234375l0.41015625,0.3662109375q0.29296875,0.263671875,0.5859375,0.1171875t0.52734375-0.53466796875t0.43212890625-0.95947265625t0.3515625-1.171875t0.22705078125-1.171875t0.0732421875-0.9521484375l0-0.498046875t-0.0439453125-0.52734375t-0.15380859375-0.41748046875t-0.34423828125-0.21240234375q-0.0732421875-0.0146484375-0.1318359375-0.0146484375q-0.498046875,0-0.849609375,0.6298828125q-0.380859375,0.703125-0.615234375,1.70654296875t-0.3369140625,2.05810546875t-0.1318359375,1.58203125z M72.162353515625,37.13671875q0-1.025390625,0.22705078125-2.4169921875t0.76904296875-2.63671875t1.42822265625-2.11669921875t2.23388671875-0.87158203125q1.259765625,0,1.8896484375,0.72509765625t0.6298828125,1.95556640625q0,0.8056640625-0.30029296875,1.76513671875t-0.85693359375,1.81640625t-1.318359375,1.42822265625t-1.69921875,0.5712890625l-0.380859375-0.029296875q0,0.3955078125,0.1171875,1.06201171875t0.34423828125,1.32568359375t0.5859375,1.1572265625t0.87158203125,0.498046875q0.7470703125,0,1.435546875-0.6005859375t1.3037109375-1.3330078125t1.142578125-1.3330078125t0.966796875-0.6005859375q0.234375,0,0.4833984375,0.0732421875t0.2783203125,0.41015625q0,0.205078125-0.10986328125,0.3369140625t-0.19775390625,0.29296875q-0.4541015625,0.7763671875-0.98876953125,1.4794921875t-1.20849609375,1.2744140625t-1.47216796875,0.90087890625t-1.76513671875,0.32958984375q-1.259765625,0-2.0947265625-0.44677734375t-1.34765625-1.201171875t-0.73974609375-1.7431640625t-0.22705078125-2.07275390625z M74.784423828125,36.0234375l0.41015625,0.3662109375q0.29296875,0.263671875,0.5859375,0.1171875t0.52734375-0.53466796875t0.43212890625-0.95947265625t0.3515625-1.171875t0.22705078125-1.171875t0.0732421875-0.9521484375l0-0.498046875t-0.0439453125-0.52734375t-0.15380859375-0.41748046875t-0.34423828125-0.21240234375q-0.0732421875-0.0146484375-0.1318359375-0.0146484375q-0.498046875,0-0.849609375,0.6298828125q-0.380859375,0.703125-0.615234375,1.70654296875t-0.3369140625,2.05810546875t-0.1318359375,1.58203125z M90.111669921875,32.7568359375q0-0.6005859375,0.3515625-1.03271484375t0.85693359375-0.703125t1.10595703125-0.40283203125t1.11328125-0.1318359375q0.3955078125,0,1.0546875,0.1171875t1.2890625,0.3515625t1.09130859375,0.615234375t0.46142578125,0.8935546875q0,0.234375-0.17578125,0.41748046875t-0.3662109375,0.18310546875q-0.3955078125,0-0.7177734375-0.25634765625t-0.66650390625-0.5419921875t-0.75439453125-0.5419921875t-0.9228515625-0.25634765625t-0.93017578125,0.32958984375t-0.41748046875,0.87158203125q0,0.8935546875,0.6298828125,1.75048828125t1.38427734375,1.8017578125t1.38427734375,1.98486328125t0.6298828125,2.2998046875q0,0.5419921875-0.22705078125,0.91552734375t-0.6005859375,0.60791015625t-0.84228515625,0.35888671875t-0.908203125,0.12451171875q-0.4833984375,0-1.1279296875-0.22705078125t-1.2158203125-0.6005859375t-0.95947265625-0.87158203125t-0.38818359375-1.0400390625q0-0.263671875,0.37353515625-0.3369140625t0.54931640625-0.0732421875q0.087890625,0,0.27099609375,0.05859375t0.35888671875,0.1318359375t0.31494140625,0.1611328125t0.10986328125,0.1904296875q0.146484375,0.17578125,0.44677734375,0.52001953125t0.6005859375,0.556640625t0.52734375,0.15380859375t0.22705078125-0.6591796875q0-1.142578125-0.615234375-2.10205078125t-1.34033203125-1.875t-1.34033203125-1.81640625t-0.615234375-1.92626953125z M100.433984375,38.1328125l0-1.376953125q0-0.7470703125,0.03662109375-2.11669921875t0.09521484375-3.0029296875t0.1611328125-3.40576171875t0.234375-3.34716796875t0.31494140625-2.81982421875t0.41748046875-1.845703125q0.146484375-0.3369140625,0.4833984375-0.4248046875t0.6591796875-0.087890625q0.5126953125,0,0.90087890625,0.22705078125t0.38818359375,0.82763671875l-0.263671875,0.29296875q-0.5126953125,3.3837890625-0.6591796875,6.796875t-0.205078125,6.826171875q0.3662109375-0.5712890625,0.82763671875-1.12060546875t1.025390625-0.97412109375t1.2158203125-0.68115234375t1.42822265625-0.25634765625q0.99609375,0,1.64794921875,0.6005859375t1.07666015625,1.56005859375t0.6298828125,2.14599609375t0.31494140625,2.373046875t0.15380859375,2.24853515625t0.1318359375,1.76513671875q-0.2783203125,0.380859375-0.8203125,0.380859375l-0.0439453125,0q-0.234375,0-0.5126953125-0.05859375t-0.3662109375-0.29296875l0.029296875,0.029296875q-0.205078125-0.4541015625-0.2783203125-1.31103515625t-0.1171875-1.8896484375t-0.15380859375-2.11669921875t-0.32958984375-1.962890625t-0.64453125-1.4501953125t-1.142578125-0.6005859375l-0.087890625,0q-0.8642578125,0-1.4501953125,0.52734375q-0.615234375,0.556640625-0.99609375,1.46484375t-0.5859375,2.021484375t-0.31494140625,2.14599609375t-0.16845703125,1.875t-0.146484375,1.23779296875q-0.087890625,0.3369140625-0.52001953125,0.44677734375t-0.73974609375,0.10986328125q-0.7177734375,0-1.171875-0.41015625q-0.3369140625-0.8056640625-0.3955078125-2.0068359375t-0.05859375-2.34375z M114.15473632813,36.814453125q0-0.8349609375,0.21240234375-1.72119140625t0.673828125-1.5966796875t1.16455078125-1.1572265625t1.69921875-0.44677734375q0.7470703125,0,1.57470703125,0.25634765625t1.51611328125,0.732421875t1.12060546875,1.16455078125t0.43212890625,1.5380859375q0,1.025390625-0.37353515625,1.9482421875t-1.04736328125,1.64794921875t-1.57470703125,1.142578125t-1.95556640625,0.41748046875q-0.8642578125,0-1.5087890625-0.31494140625t-1.07666015625-0.84228515625t-0.64453125-1.2451171875t-0.21240234375-1.5234375z M116.30805664063,36.78515625q0,0.263671875,0.08056640625,0.7763671875t0.24169921875,1.00341796875t0.41748046875,0.849609375t0.62255859375,0.32958984375q0.7763671875-0.087890625,1.28173828125-0.50537109375t0.8203125-1.01806640625t0.439453125-1.3037109375t0.12451171875-1.3330078125q0-0.8056640625-0.31494140625-1.34765625t-1.03271484375-0.87890625q0,0.029296875,0.029296875,0.029296875t0.029296875-0.029296875l-0.3662109375-0.087890625q-0.146484375-0.05859375-0.35888671875-0.1318359375t-0.41748046875-0.322265625q-0.5712890625,0.205078125-0.88623046875,0.52734375t-0.47607421875,0.78369140625t-0.19775390625,1.10595703125t-0.03662109375,1.552734375z M125.25341796875,31.2333984375q0-0.6884765625,0.27099609375-1.01806640625t0.98876953125-0.32958984375q0.4248046875,0,0.79833984375,0.17578125t0.37353515625,0.7470703125q0.05859375,0.8349609375,0.05859375,1.75048828125t0.1611328125,1.73583984375q0.3662109375-0.6005859375,0.82763671875-1.201171875t1.01806640625-1.0693359375t1.2158203125-0.75439453125t1.435546875-0.28564453125q1.0546875,0,1.787109375,0.439453125t1.20849609375,1.142578125t0.6884765625,1.58935546875t0.21240234375,1.77978515625q0,1.376953125-0.41748046875,2.24853515625t-1.10595703125,1.36962890625t-1.56005859375,0.673828125t-1.75048828125,0.17578125q-0.7763671875,0-1.4501953125-0.30029296875t-0.9375-1.13525390625q0-0.234375,0.34423828125-0.29296875t0.49072265625-0.05859375q0.4833984375,0,0.7177734375,0.263671875q0.17578125,0.205078125,0.38818359375,0.41748046875t0.44677734375,0.21240234375q0.4541015625,0,0.9521484375-0.25634765625t0.91552734375-0.673828125t0.703125-0.98876953125t0.28564453125-1.171875q0-0.5126953125-0.087890625-1.2744140625t-0.30029296875-1.46484375t-0.5859375-1.2158203125t-0.94482421875-0.5126953125q-0.8642578125,0-1.56005859375,0.791015625t-1.1572265625,1.904296875t-0.7177734375,2.314453125t-0.25634765625,2.0068359375t0.1025390625,2.0361328125t0.21240234375,2.55615234375t0.21240234375,2.55615234375t0.1025390625,2.0361328125q0,0.205078125-0.16845703125,0.32958984375t-0.40283203125,0.19775390625t-0.47607421875,0.087890625t-0.35888671875,0.0146484375q-0.3955078125,0-0.82763671875-0.087890625t-0.59326171875-0.5419921875q-0.205078125-0.7177734375-0.380859375-2.04345703125t-0.31494140625-2.9296875t-0.24169921875-3.369140625t-0.17578125-3.40576171875t-0.10986328125-3.0029296875t-0.03662109375-2.16796875z M145.0044921875,32.2734375q0-1.025390625,0.09521484375-2.666015625t0.22705078125-3.3837890625t0.32958984375-3.30322265625t0.43212890625-2.39501953125q0.087890625-0.3662109375,0.41748046875-0.439453125t0.66650390625-0.0732421875q0.4541015625,0,0.78369140625,0.1611328125t0.32958984375,0.703125q0,2.666015625-0.32958984375,5.33935546875t-0.35888671875,5.33935546875q0.4541015625-0.6884765625,1.171875-1.03271484375t1.5234375-0.34423828125q1.11328125,0,1.9189453125,0.4541015625t1.3037109375,1.171875t0.73974609375,1.66259765625t0.24169921875,1.92626953125q0,0.5419921875-0.10986328125,1.35498046875t-0.32958984375,1.7138671875t-0.556640625,1.787109375t-0.79833984375,1.58935546875t-1.06201171875,1.13525390625t-1.318359375,0.43212890625q-0.146484375,0-0.38818359375-0.0439453125t-0.4833984375-0.1318359375t-0.40283203125-0.22705078125t-0.1611328125-0.34423828125q0-0.234375,0.28564453125-0.32958984375t0.46142578125-0.09521484375q0.6591796875-0.29296875,1.171875-1.22314453125t0.85693359375-2.04345703125t0.52001953125-2.20458984375t0.17578125-1.77978515625q0-0.3955078125-0.1171875-1.0546875t-0.35888671875-1.3037109375t-0.6591796875-1.11328125t-0.98876953125-0.46875q-0.6884765625,0-1.0986328125,0.71044921875t-0.64453125,1.6552734375t-0.31494140625,1.9482421875t-0.08056640625,1.57470703125q0,0.3662109375,0.12451171875,0.72509765625t0.28564453125,0.7177734375t0.28564453125,0.732421875t0.12451171875,0.73974609375q0,0.17578125-0.15380859375,0.29296875t-0.35888671875,0.1904296875t-0.43212890625,0.09521484375t-0.34423828125,0.02197265625q-0.8349609375,0-1.1572265625-0.3955078125t-0.556640625-1.11328125q-0.5126953125-1.6259765625-0.71044921875-3.30322265625t-0.19775390625-3.36181640625z M157.49477539062,33.26953125q0-0.4248046875,0.24169921875-0.556640625t0.60791015625-0.1318359375q0.6005859375,0,0.91552734375,0.22705078125t0.31494140625,0.79833984375q0,0.6884765625,0.1025390625,1.72119140625t0.30029296875,2.0068359375t0.46875,1.67724609375t0.56396484375,0.703125q0.5419921875,0,0.95947265625-0.8349609375t0.732421875-2.05078125t0.5419921875-2.61474609375t0.31494140625-2.49755859375q0.05859375-0.6005859375,0.28564453125-0.87158203125t0.82763671875-0.27099609375q0.6884765625,0,1.00341796875,0.5712890625t0.40283203125,1.40625q0.0732421875,0.7177734375,0.0732421875,1.494140625l0,0.2490234375l0,0.5859375q0,0.556640625,0.0146484375,0.99609375l0.4248046875,8.9794921875l0.05859375,1.494140625q0.029296875,0.205078125,0.0439453125,0.38818359375t0.0146484375,0.38818359375q0,0.8349609375-0.35888671875,1.07666015625t-1.16455078125,0.24169921875q-0.17578125,0-0.44677734375-0.029296875t-0.52734375-0.1171875t-0.439453125-0.24169921875t-0.18310546875-0.38818359375l0.05859375-0.146484375q0.0732421875-0.87890625,0.0732421875-1.845703125l0-0.3076171875q-0.0146484375-1.142578125-0.0732421875-2.314453125t-0.1318359375-2.34375t-0.0732421875-2.255859375q-0.205078125,0.4541015625-0.47607421875,0.9375t-0.6298828125,0.87158203125t-0.81298828125,0.64453125t-1.025390625,0.25634765625q-0.8349609375,0-1.376953125-0.439453125t-0.84228515625-1.142578125t-0.43212890625-1.57470703125t-0.17578125-1.7431640625t-0.05859375-1.66259765625t-0.1171875-1.3330078125z M175.45141601562,21.32373046875q-0.03662109375-0.44677734375,0.05859375-0.7763671875t0.380859375-0.5419921875t0.91552734375-0.21240234375l2.3583984375,0q0.4833984375,0,1.26708984375,0.05126953125t1.6845703125,0.15380859375t1.79443359375,0.31494140625t1.63330078125,0.52734375t1.201171875,0.7763671875t0.46142578125,1.09130859375q0,0.8935546875-0.52001953125,1.67724609375t-1.3037109375,1.41357421875t-1.6552734375,1.12060546875t-1.56005859375,0.88623046875q2.724609375,0.6005859375,4.2626953125,2.490234375t1.5380859375,4.716796875q0,1.494140625-0.5712890625,2.95166015625t-1.56005859375,2.62939453125t-2.34375,1.8896484375t-2.90771484375,0.7177734375q-0.205078125,0-0.46142578125-0.0439453125t-0.46875-0.13916015625t-0.3662109375-0.27099609375t-0.15380859375-0.4541015625q0-1.2890625,1.3916015625-1.2890625q0.234375,0,0.54931640625,0.06591796875t0.49072265625,0.27099609375q0.8056640625-0.3369140625,1.47216796875-1.0693359375t1.1279296875-1.63330078125t0.7177734375-1.8896484375t0.25634765625-1.79443359375q0-0.966796875-0.28564453125-1.97021484375t-0.82763671875-1.8603515625t-1.3330078125-1.44287109375t-1.81640625-0.732421875q-0.263671875-0.029296875-0.57861328125-0.0439453125l-0.6298828125-0.029296875t-0.615234375-0.087890625t-0.52001953125-0.234375q0.1171875,2.431640625,0.30029296875,4.8486328125t0.49072265625,4.8486328125q0.1171875,0.1171875,0.1611328125,0.34423828125t0.0732421875,0.4833984375t0.029296875,0.49072265625l0,0.3955078125q0,0.263671875-0.17578125,0.43212890625t-0.41748046875,0.27099609375t-0.5126953125,0.1318359375t-0.47607421875,0.029296875q-0.6591796875,0-1.0107421875-0.17578125t-0.498046875-0.5126953125t-0.1904296875-0.76904296875t-0.0732421875-0.94482421875q-0.3955078125-4.0869140625-0.5712890625-8.0859375t-0.17578125-8.0859375q0-0.4833984375-0.03662109375-0.93017578125z M178.15405273437,20.701171875q0,1.8017578125,0.1171875,3.61083984375t0.205078125,3.61083984375q0.6591796875-0.3955078125,1.728515625-0.93017578125t2.07275390625-1.17919921875t1.72119140625-1.4208984375t0.7177734375-1.6845703125q0-0.7177734375-0.849609375-1.09130859375t-1.9775390625-0.556640625t-2.20458984375-0.22705078125t-1.53076171875-0.1318359375z M190.951953125,21.5361328125q0-0.17578125,0.13916015625-0.2783203125t0.32958984375-0.15380859375t0.38818359375-0.06591796875t0.34423828125-0.0439453125q0.6591796875-0.087890625,1.7138671875-0.2197265625t2.16064453125-0.25634765625t2.14599609375-0.21240234375t1.669921875-0.087890625q0.29296875,0,0.732421875,0.1025390625t0.46875,0.498046875l-0.1611328125,0.2783203125q-0.99609375,2.255859375-2.04345703125,4.63623046875t-1.9775390625,4.84130859375t-1.64794921875,4.9658203125t-0.9814453125,5.0244140625q0.234375,0.029296875,0.8642578125,0.05859375t1.42822265625,0.0732421875t1.64794921875,0.1318359375t1.56005859375,0.19775390625t1.1572265625,0.25634765625t0.44677734375,0.3515625q0,0.234375-0.1611328125,0.37353515625t-0.40283203125,0.21240234375t-0.498046875,0.10986328125t-0.43212890625,0.03662109375q-0.29296875,0-1.07666015625-0.0146484375t-1.7578125-0.06591796875t-2.02880859375-0.13916015625t-1.92626953125-0.2197265625t-1.435546875-0.31494140625t-0.56396484375-0.41748046875q0-0.8056640625,0.35888671875-2.3876953125t0.94482421875-3.544921875t1.3037109375-4.09423828125t1.4501953125-4.03564453125t1.3916015625-3.39111328125t1.11328125-2.17529296875q-1.46484375,0.087890625-2.90771484375,0.25634765625t-2.90771484375,0.16845703125q-0.205078125,0-0.52734375-0.05859375t-0.322265625-0.3955078125z"/><path fill="#133954" d="M256.595703125,23.62109375q0-0.458984375,0.1123046875-0.6689453125t0.322265625-0.29296875t0.5078125-0.0634765625t0.6982421875,0.01953125q1.015625,0,2.05078125,0.3125t1.865234375,0.9130859375t1.337890625,1.4794921875t0.5078125,2.021484375q0,0.76171875-0.2197265625,1.4404296875t-0.6201171875,1.26953125t-0.9375,1.0791015625t-1.181640625,0.849609375q0.263671875,0.263671875,0.68359375,0.9326171875t0.830078125,1.42578125t0.7275390625,1.4697265625t0.3759765625,1.07421875l-0.1171875,0.17578125q-0.263671875,0.15625-0.634765625,0.166015625q-0.17578125,0-0.458984375-0.0439453125t-0.361328125-0.2587890625q-0.400390625-1.123046875-0.8740234375-2.314453125t-1.1669921875-2.1484375l0-0.01953125q-0.244140625,0.09765625-0.4833984375,0.1904296875t-0.4833984375,0.1708984375q0.078125,1.083984375,0.1611328125,2.1337890625t0.0830078125,2.1240234375q0,0.13671875-0.1318359375,0.2197265625t-0.2978515625,0.1318359375t-0.3369140625,0.068359375t-0.2783203125,0.01953125q-0.09765625,0-0.2783203125-0.01953125t-0.3466796875-0.068359375t-0.2880859375-0.1416015625t-0.1220703125-0.2490234375q0-1.083984375-0.048828125-2.1630859375t-0.107421875-2.1533203125q-0.302734375-0.1953125-0.302734375-0.5078125q0-0.244140625,0.234375-0.33203125q-0.1171875-2.060546875-0.2685546875-4.111328125t-0.1513671875-4.130859375z M258.36328125,23.318359375q0.13671875,2.119140625,0.3076171875,4.189453125t0.3271484375,4.189453125q0.68359375-0.1953125,1.2744140625-0.6787109375t1.0205078125-1.0888671875t0.6689453125-1.318359375t0.2392578125-1.416015625q0-0.78125-0.3125-1.4990234375t-0.830078125-1.2548828125q-0.52734375-0.537109375-1.2109375-0.83984375q-0.60546875-0.263671875-1.26953125-0.263671875l-0.17578125,0z M265.99677734375,33.7578125q0-0.68359375,0.1513671875-1.611328125t0.5126953125-1.7578125t0.9521484375-1.4111328125t1.4892578125-0.5810546875q0.83984375,0,1.259765625,0.4833984375t0.419921875,1.3037109375q0,0.537109375-0.2001953125,1.1767578125t-0.5712890625,1.2109375t-0.87890625,0.9521484375t-1.1328125,0.380859375l-0.25390625-0.01953125q0,0.263671875,0.078125,0.7080078125t0.2294921875,0.8837890625t0.390625,0.771484375t0.5810546875,0.33203125q0.498046875,0,0.95703125-0.400390625t0.869140625-0.888671875t0.76171875-0.888671875t0.64453125-0.400390625q0.15625,0,0.322265625,0.048828125t0.185546875,0.2734375q0,0.13671875-0.0732421875,0.224609375t-0.1318359375,0.1953125q-0.302734375,0.517578125-0.6591796875,0.986328125t-0.8056640625,0.849609375t-0.9814453125,0.6005859375t-1.1767578125,0.2197265625q-0.83984375,0-1.396484375-0.2978515625t-0.8984375-0.80078125t-0.4931640625-1.162109375t-0.1513671875-1.3818359375z M267.74482421875,33.015625l0.2734375,0.244140625q0.1953125,0.17578125,0.390625,0.078125t0.3515625-0.3564453125t0.2880859375-0.6396484375t0.234375-0.78125t0.1513671875-0.78125t0.048828125-0.634765625l0-0.33203125t-0.029296875-0.3515625t-0.1025390625-0.2783203125t-0.2294921875-0.1416015625q-0.048828125-0.009765625-0.087890625-0.009765625q-0.33203125,0-0.56640625,0.419921875q-0.25390625,0.46875-0.41015625,1.1376953125t-0.224609375,1.3720703125t-0.087890625,1.0546875z M274.1576171875,29.275390625q0-0.09765625,0.1513671875-0.166015625t0.361328125-0.09765625t0.400390625-0.048828125t0.2880859375-0.01953125q0.0390625-0.263671875,0.1123046875-0.712890625t0.1806640625-0.9619140625t0.2685546875-1.0302734375t0.390625-0.9375t0.5419921875-0.6884765625t0.732421875-0.2685546875l-0.01953125,0q0.13671875-0.01953125,0.2685546875-0.029296875t0.2685546875-0.009765625q0.322265625,0,0.6982421875,0.126953125t0.6982421875,0.3564453125t0.5419921875,0.5517578125t0.2197265625,0.68359375q0,0.283203125-0.1416015625,0.6103515625t-0.4931640625,0.3271484375q-0.1171875,0-0.2392578125-0.05859375t-0.2294921875-0.126953125q0.0390625-0.224609375,0.0390625-0.44921875q0-0.1171875-0.009765625-0.224609375q-0.029296875-0.341796875-0.146484375-0.6005859375t-0.3369140625-0.41015625t-0.5224609375-0.1123046875q-0.400390625,0.05859375-0.6005859375,0.48828125t-0.2783203125,1.0205078125t-0.09765625,1.201171875t-0.078125,0.9912109375q0.458984375,0.0390625,0.7763671875,0.0390625l0.7958984375,0q0.078125,0,0.2685546875,0.009765625t0.37109375,0.0390625t0.322265625,0.1025390625t0.1416015625,0.1904296875q0,0.09765625-0.078125,0.1708984375t-0.1904296875,0.1025390625t-0.234375,0.0390625t-0.2001953125,0.009765625q-0.341796875,0-0.5810546875-0.029296875t-0.458984375-0.0537109375t-0.458984375-0.0244140625t-0.5615234375,0.068359375q-0.09765625,1.083984375-0.15625,2.1484375t-0.05859375,2.1484375q0,1.69921875,0.107421875,3.330078125t0.390625,3.310546875q0.0390625,0.15625,0.068359375,0.3564453125t0.029296875,0.3857421875q0,0.17578125-0.107421875,0.2880859375t-0.2685546875,0.1611328125t-0.33203125,0.068359375t-0.3076171875,0.01953125q-0.556640625,0-0.78125-0.1708984375t-0.322265625-0.6884765625q-0.244140625-1.376953125-0.3125-2.7783203125t-0.068359375-2.8271484375q0-1.396484375,0.1025390625-2.7880859375t0.2587890625-2.7685546875q-0.078125,0-0.2685546875,0.009765625t-0.380859375,0t-0.33203125-0.068359375t-0.1416015625-0.205078125z M281.36142578125,30.623046875q0-0.400390625,0.1416015625-0.673828125t0.6005859375-0.2734375q0.17578125,0,0.439453125,0.0537109375t0.302734375,0.2685546875q0.09765625,0.576171875,0.107421875,1.25t0.068359375,1.26953125q0.224609375-0.439453125,0.576171875-0.947265625t0.80078125-0.9375t0.9765625-0.712890625t1.07421875-0.283203125q0.0390625,0,0.146484375,0.029296875t0.2001953125,0.0830078125t0.1123046875,0.1220703125t-0.107421875,0.126953125q-0.0390625,0.1171875-0.166015625,0.1416015625t-0.224609375,0.0244140625q-0.05859375,0-0.185546875-0.048828125q-0.72265625,0.380859375-1.23046875,1.03515625t-0.830078125,1.4501953125t-0.46875,1.6796875t-0.146484375,1.7236328125q0,0.419921875-0.1904296875,0.5078125t-0.6103515625,0.087890625q-0.224609375,0-0.4736328125-0.048828125t-0.3466796875-0.3125q-0.17578125-0.556640625-0.2880859375-1.279296875t-0.1708984375-1.4892578125t-0.0830078125-1.5087890625t-0.0244140625-1.337890625z M288.3015625,33.7578125q0-0.68359375,0.1513671875-1.611328125t0.5126953125-1.7578125t0.9521484375-1.4111328125t1.4892578125-0.5810546875q0.83984375,0,1.259765625,0.4833984375t0.419921875,1.3037109375q0,0.537109375-0.2001953125,1.1767578125t-0.5712890625,1.2109375t-0.87890625,0.9521484375t-1.1328125,0.380859375l-0.25390625-0.01953125q0,0.263671875,0.078125,0.7080078125t0.2294921875,0.8837890625t0.390625,0.771484375t0.5810546875,0.33203125q0.498046875,0,0.95703125-0.400390625t0.869140625-0.888671875t0.76171875-0.888671875t0.64453125-0.400390625q0.15625,0,0.322265625,0.048828125t0.185546875,0.2734375q0,0.13671875-0.0732421875,0.224609375t-0.1318359375,0.1953125q-0.302734375,0.517578125-0.6591796875,0.986328125t-0.8056640625,0.849609375t-0.9814453125,0.6005859375t-1.1767578125,0.2197265625q-0.83984375,0-1.396484375-0.2978515625t-0.8984375-0.80078125t-0.4931640625-1.162109375t-0.1513671875-1.3818359375z M290.049609375,33.015625l0.2734375,0.244140625q0.1953125,0.17578125,0.390625,0.078125t0.3515625-0.3564453125t0.2880859375-0.6396484375t0.234375-0.78125t0.1513671875-0.78125t0.048828125-0.634765625l0-0.33203125t-0.029296875-0.3515625t-0.1025390625-0.2783203125t-0.2294921875-0.1416015625q-0.048828125-0.009765625-0.087890625-0.009765625q-0.33203125,0-0.56640625,0.419921875q-0.25390625,0.46875-0.41015625,1.1376953125t-0.224609375,1.3720703125t-0.087890625,1.0546875z M296.46240234375,30.837890625q0-0.400390625,0.234375-0.6884765625t0.5712890625-0.46875t0.7373046875-0.2685546875t0.7421875-0.087890625q0.263671875,0,0.703125,0.078125t0.859375,0.234375t0.7275390625,0.41015625t0.3076171875,0.595703125q0,0.15625-0.1171875,0.2783203125t-0.244140625,0.1220703125q-0.263671875,0-0.478515625-0.1708984375t-0.4443359375-0.361328125t-0.5029296875-0.361328125t-0.615234375-0.1708984375t-0.6201171875,0.2197265625t-0.2783203125,0.5810546875q0,0.595703125,0.419921875,1.1669921875t0.9228515625,1.201171875t0.9228515625,1.3232421875t0.419921875,1.533203125q0,0.361328125-0.1513671875,0.6103515625t-0.400390625,0.4052734375t-0.5615234375,0.2392578125t-0.60546875,0.0830078125q-0.322265625,0-0.751953125-0.1513671875t-0.810546875-0.400390625t-0.6396484375-0.5810546875t-0.2587890625-0.693359375q0-0.17578125,0.2490234375-0.224609375t0.3662109375-0.048828125q0.05859375,0,0.1806640625,0.0390625t0.2392578125,0.087890625t0.2099609375,0.107421875t0.0732421875,0.126953125q0.09765625,0.1171875,0.2978515625,0.3466796875t0.400390625,0.37109375t0.3515625,0.1025390625t0.1513671875-0.439453125q0-0.76171875-0.41015625-1.4013671875t-0.8935546875-1.25t-0.8935546875-1.2109375t-0.41015625-1.2841796875z M303.3439453125,34.421875l0-0.91796875q0-0.498046875,0.0244140625-1.4111328125t0.0634765625-2.001953125t0.107421875-2.2705078125t0.15625-2.2314453125t0.2099609375-1.8798828125t0.2783203125-1.23046875q0.09765625-0.224609375,0.322265625-0.283203125t0.439453125-0.05859375q0.341796875,0,0.6005859375,0.1513671875t0.2587890625,0.5517578125l-0.17578125,0.1953125q-0.341796875,2.255859375-0.439453125,4.53125t-0.13671875,4.55078125q0.244140625-0.380859375,0.5517578125-0.7470703125t0.68359375-0.6494140625t0.810546875-0.4541015625t0.9521484375-0.1708984375q0.6640625,0,1.0986328125,0.400390625t0.7177734375,1.0400390625t0.419921875,1.4306640625t0.2099609375,1.58203125t0.1025390625,1.4990234375t0.087890625,1.1767578125q-0.185546875,0.25390625-0.546875,0.25390625l-0.029296875,0q-0.15625,0-0.341796875-0.0390625t-0.244140625-0.1953125l0.01953125,0.01953125q-0.13671875-0.302734375-0.185546875-0.8740234375t-0.078125-1.259765625t-0.1025390625-1.4111328125t-0.2197265625-1.30859375t-0.4296875-0.966796875t-0.76171875-0.400390625l-0.05859375,0q-0.576171875,0-0.966796875,0.3515625q-0.41015625,0.37109375-0.6640625,0.9765625t-0.390625,1.34765625t-0.2099609375,1.4306640625t-0.1123046875,1.25t-0.09765625,0.8251953125q-0.05859375,0.224609375-0.3466796875,0.2978515625t-0.4931640625,0.0732421875q-0.478515625,0-0.78125-0.2734375q-0.224609375-0.537109375-0.263671875-1.337890625t-0.0390625-1.5625z M316.491796875,31.1796875q0-0.283203125,0.1611328125-0.37109375t0.4052734375-0.087890625q0.400390625,0,0.6103515625,0.1513671875t0.2099609375,0.5322265625q0,0.458984375,0.068359375,1.1474609375t0.2001953125,1.337890625t0.3125,1.1181640625t0.3759765625,0.46875q0.361328125,0,0.6396484375-0.556640625t0.48828125-1.3671875t0.361328125-1.7431640625t0.2099609375-1.6650390625q0.0390625-0.400390625,0.1904296875-0.5810546875t0.5517578125-0.1806640625q0.458984375,0,0.6689453125,0.380859375t0.2685546875,0.9375q0.048828125,0.478515625,0.048828125,0.99609375l0,0.166015625l0,0.390625q0,0.37109375,0.009765625,0.6640625l0.283203125,5.986328125l0.0390625,0.99609375q0.01953125,0.13671875,0.029296875,0.2587890625t0.009765625,0.2587890625q0,0.556640625-0.2392578125,0.7177734375t-0.7763671875,0.1611328125q-0.1171875,0-0.2978515625-0.01953125t-0.3515625-0.078125t-0.29296875-0.1611328125t-0.1220703125-0.2587890625l0.0390625-0.09765625q0.048828125-0.5859375,0.048828125-1.23046875l0-0.205078125q-0.009765625-0.76171875-0.048828125-1.54296875t-0.087890625-1.5625t-0.048828125-1.50390625q-0.13671875,0.302734375-0.3173828125,0.625t-0.419921875,0.5810546875t-0.5419921875,0.4296875t-0.68359375,0.1708984375q-0.556640625,0-0.91796875-0.29296875t-0.5615234375-0.76171875t-0.2880859375-1.0498046875t-0.1171875-1.162109375t-0.0390625-1.1083984375t-0.078125-0.888671875z M324.43779296875,33.54296875q0-0.556640625,0.1416015625-1.1474609375t0.44921875-1.064453125t0.7763671875-0.771484375t1.1328125-0.2978515625q0.498046875,0,1.0498046875,0.1708984375t1.0107421875,0.48828125t0.7470703125,0.7763671875t0.2880859375,1.025390625q0,0.68359375-0.2490234375,1.298828125t-0.6982421875,1.0986328125t-1.0498046875,0.76171875t-1.3037109375,0.2783203125q-0.576171875,0-1.005859375-0.2099609375t-0.7177734375-0.5615234375t-0.4296875-0.830078125t-0.1416015625-1.015625z M325.87333984375,33.5234375q0,0.17578125,0.0537109375,0.517578125t0.1611328125,0.6689453125t0.2783203125,0.56640625t0.4150390625,0.2197265625q0.517578125-0.05859375,0.8544921875-0.3369140625t0.546875-0.6787109375t0.29296875-0.869140625t0.0830078125-0.888671875q0-0.537109375-0.2099609375-0.8984375t-0.6884765625-0.5859375q0,0.01953125,0.01953125,0.01953125t0.01953125-0.01953125l-0.244140625-0.05859375q-0.09765625-0.0390625-0.2392578125-0.087890625t-0.2783203125-0.21484375q-0.380859375,0.13671875-0.5908203125,0.3515625t-0.3173828125,0.5224609375t-0.1318359375,0.7373046875t-0.0244140625,1.03515625z M331.4365234375,32.498046875q0-0.1953125,0.0439453125-0.517578125t0.1025390625-0.6396484375t0.13671875-0.5908203125t0.185546875-0.3515625q0.078125-0.078125,0.2685546875-0.15625t0.400390625-0.1123046875t0.390625,0.029296875t0.2197265625,0.2587890625q-0.13671875,0.17578125-0.2490234375,0.6005859375t-0.1708984375,0.9423828125q-0.048828125,0.439453125-0.048828125,0.908203125l0,0.166015625q0.009765625,0.546875,0.09765625,1.005859375t0.2685546875,0.7568359375t0.5029296875,0.2978515625q0.68359375,0,1.25-0.6298828125t1.005859375-1.5380859375t0.771484375-1.9287109375t0.56640625-1.7822265625q0.05859375-0.224609375,0.2783203125-0.302734375t0.4736328125-0.0537109375t0.4541015625,0.1220703125t0.2392578125,0.234375q-0.1953125,1.640625-0.3076171875,3.28125t-0.1123046875,3.30078125q0,0.322265625,0.029296875,0.5908203125t-0.029296875,0.458984375t-0.2587890625,0.302734375t-0.6396484375,0.1123046875q-0.09765625,0-0.2490234375-0.01953125t-0.3125-0.0634765625t-0.2734375-0.1318359375t-0.1123046875-0.205078125q0-0.72265625,0.0537109375-1.484375t0.1513671875-1.474609375q-0.263671875,0.380859375-0.5810546875,0.7568359375t-0.6982421875,0.6787109375t-0.8203125,0.4833984375t-0.947265625,0.1806640625q-0.72265625,0-1.1376953125-0.341796875t-0.625-0.8544921875t-0.263671875-1.1181640625t-0.0537109375-1.171875z M340.62275390625,30.623046875q0-0.400390625,0.1416015625-0.673828125t0.6005859375-0.2734375q0.17578125,0,0.439453125,0.0537109375t0.302734375,0.2685546875q0.09765625,0.576171875,0.107421875,1.25t0.068359375,1.26953125q0.224609375-0.439453125,0.576171875-0.947265625t0.80078125-0.9375t0.9765625-0.712890625t1.07421875-0.283203125q0.0390625,0,0.146484375,0.029296875t0.2001953125,0.0830078125t0.1123046875,0.1220703125t-0.107421875,0.126953125q-0.0390625,0.1171875-0.166015625,0.1416015625t-0.224609375,0.0244140625q-0.05859375,0-0.185546875-0.048828125q-0.72265625,0.380859375-1.23046875,1.03515625t-0.830078125,1.4501953125t-0.46875,1.6796875t-0.146484375,1.7236328125q0,0.419921875-0.1904296875,0.5078125t-0.6103515625,0.087890625q-0.224609375,0-0.4736328125-0.048828125t-0.3466796875-0.3125q-0.17578125-0.556640625-0.2880859375-1.279296875t-0.1708984375-1.4892578125t-0.0830078125-1.5087890625t-0.0244140625-1.337890625z M347.562890625,30.837890625q0-0.400390625,0.234375-0.6884765625t0.5712890625-0.46875t0.7373046875-0.2685546875t0.7421875-0.087890625q0.263671875,0,0.703125,0.078125t0.859375,0.234375t0.7275390625,0.41015625t0.3076171875,0.595703125q0,0.15625-0.1171875,0.2783203125t-0.244140625,0.1220703125q-0.263671875,0-0.478515625-0.1708984375t-0.4443359375-0.361328125t-0.5029296875-0.361328125t-0.615234375-0.1708984375t-0.6201171875,0.2197265625t-0.2783203125,0.5810546875q0,0.595703125,0.419921875,1.1669921875t0.9228515625,1.201171875t0.9228515625,1.3232421875t0.419921875,1.533203125q0,0.361328125-0.1513671875,0.6103515625t-0.400390625,0.4052734375t-0.5615234375,0.2392578125t-0.60546875,0.0830078125q-0.322265625,0-0.751953125-0.1513671875t-0.810546875-0.400390625t-0.6396484375-0.5810546875t-0.2587890625-0.693359375q0-0.17578125,0.2490234375-0.224609375t0.3662109375-0.048828125q0.05859375,0,0.1806640625,0.0390625t0.2392578125,0.087890625t0.2099609375,0.107421875t0.0732421875,0.126953125q0.09765625,0.1171875,0.2978515625,0.3466796875t0.400390625,0.37109375t0.3515625,0.1025390625t0.1513671875-0.439453125q0-0.76171875-0.41015625-1.4013671875t-0.8935546875-1.25t-0.8935546875-1.2109375t-0.41015625-1.2841796875z M354.44443359375,33.7578125q0-0.68359375,0.1513671875-1.611328125t0.5126953125-1.7578125t0.9521484375-1.4111328125t1.4892578125-0.5810546875q0.83984375,0,1.259765625,0.4833984375t0.419921875,1.3037109375q0,0.537109375-0.2001953125,1.1767578125t-0.5712890625,1.2109375t-0.87890625,0.9521484375t-1.1328125,0.380859375l-0.25390625-0.01953125q0,0.263671875,0.078125,0.7080078125t0.2294921875,0.8837890625t0.390625,0.771484375t0.5810546875,0.33203125q0.498046875,0,0.95703125-0.400390625t0.869140625-0.888671875t0.76171875-0.888671875t0.64453125-0.400390625q0.15625,0,0.322265625,0.048828125t0.185546875,0.2734375q0,0.13671875-0.0732421875,0.224609375t-0.1318359375,0.1953125q-0.302734375,0.517578125-0.6591796875,0.986328125t-0.8056640625,0.849609375t-0.9814453125,0.6005859375t-1.1767578125,0.2197265625q-0.83984375,0-1.396484375-0.2978515625t-0.8984375-0.80078125t-0.4931640625-1.162109375t-0.1513671875-1.3818359375z M356.19248046875,33.015625l0.2734375,0.244140625q0.1953125,0.17578125,0.390625,0.078125t0.3515625-0.3564453125t0.2880859375-0.6396484375t0.234375-0.78125t0.1513671875-0.78125t0.048828125-0.634765625l0-0.33203125t-0.029296875-0.3515625t-0.1025390625-0.2783203125t-0.2294921875-0.1416015625q-0.048828125-0.009765625-0.087890625-0.009765625q-0.33203125,0-0.56640625,0.419921875q-0.25390625,0.46875-0.41015625,1.1376953125t-0.224609375,1.3720703125t-0.087890625,1.0546875z M362.6052734375,36.82421875q0-0.283203125,0.0244140625-0.595703125t0.0439453125-0.5859375l0.05859375-1.46484375q0.09765625-1.7578125,0.2392578125-3.45703125t0.2392578125-3.4375q0.05859375-0.95703125,0.087890625-1.8798828125t0.087890625-1.8798828125q-0.0390625-0.078125-0.0390625-0.107421875q0-0.13671875,0.1025390625-0.21484375t0.2392578125-0.1318359375t0.2880859375-0.0732421875t0.2294921875-0.01953125l0.224609375,0q0.302734375,0.0390625,0.439453125,0.1904296875t0.17578125,0.361328125t0.01953125,0.44921875t-0.01953125,0.4443359375q0,1.416015625-0.068359375,2.8857421875t-0.15625,2.94921875t-0.1611328125,2.958984375t-0.0732421875,2.9248046875l0,0.68359375q0,0.458984375-0.2587890625,0.60546875t-0.7177734375,0.146484375q-0.400390625,0-0.703125-0.17578125t-0.302734375-0.576171875z M367.08447265625,29.275390625q0-0.09765625,0.1513671875-0.166015625t0.361328125-0.09765625t0.400390625-0.048828125t0.2880859375-0.01953125q0.0390625-0.263671875,0.1123046875-0.712890625t0.1806640625-0.9619140625t0.2685546875-1.0302734375t0.390625-0.9375t0.5419921875-0.6884765625t0.732421875-0.2685546875l-0.01953125,0q0.13671875-0.01953125,0.2685546875-0.029296875t0.2685546875-0.009765625q0.322265625,0,0.6982421875,0.126953125t0.6982421875,0.3564453125t0.5419921875,0.5517578125t0.2197265625,0.68359375q0,0.283203125-0.1416015625,0.6103515625t-0.4931640625,0.3271484375q-0.1171875,0-0.2392578125-0.05859375t-0.2294921875-0.126953125q0.0390625-0.224609375,0.0390625-0.44921875q0-0.1171875-0.009765625-0.224609375q-0.029296875-0.341796875-0.146484375-0.6005859375t-0.3369140625-0.41015625t-0.5224609375-0.1123046875q-0.400390625,0.05859375-0.6005859375,0.48828125t-0.2783203125,1.0205078125t-0.09765625,1.201171875t-0.078125,0.9912109375q0.458984375,0.0390625,0.7763671875,0.0390625l0.7958984375,0q0.078125,0,0.2685546875,0.009765625t0.37109375,0.0390625t0.322265625,0.1025390625t0.1416015625,0.1904296875q0,0.09765625-0.078125,0.1708984375t-0.1904296875,0.1025390625t-0.234375,0.0390625t-0.2001953125,0.009765625q-0.341796875,0-0.5810546875-0.029296875t-0.458984375-0.0537109375t-0.458984375-0.0244140625t-0.5615234375,0.068359375q-0.09765625,1.083984375-0.15625,2.1484375t-0.05859375,2.1484375q0,1.69921875,0.107421875,3.330078125t0.390625,3.310546875q0.0390625,0.15625,0.068359375,0.3564453125t0.029296875,0.3857421875q0,0.17578125-0.107421875,0.2880859375t-0.2685546875,0.1611328125t-0.33203125,0.068359375t-0.3076171875,0.01953125q-0.556640625,0-0.78125-0.1708984375t-0.322265625-0.6884765625q-0.244140625-1.376953125-0.3125-2.7783203125t-0.068359375-2.8271484375q0-1.396484375,0.1025390625-2.7880859375t0.2587890625-2.7685546875q-0.078125,0-0.2685546875,0.009765625t-0.380859375,0t-0.33203125-0.068359375t-0.1416015625-0.205078125z"/></svg>
